<svg width="410" height="410" viewBox="0 0 410 410" fill="none" xmlns="http://www.w3.org/2000/svg">
<path d="M205 407.5C316.838 407.5 407.5 316.838 407.5 205C407.5 93.1623 316.838 2.5 205 2.5C93.1623 2.5 2.5 93.1623 2.5 205C2.5 316.838 93.1623 407.5 205 407.5Z" fill="#0A192F" stroke="#64FFDA" stroke-width="5"/>
<path fill-rule="evenodd" clip-rule="evenodd" d="M235 113V296H200.992L129.375 162.033V227.375V266.055V296H105V116.735H129.375L211.276 266.055V113H235Z" fill="#64FFDA" stroke="#0A192F" stroke-width="3" stroke-linecap="round"/>
<path fill-rule="evenodd" clip-rule="evenodd" d="M267.063 216.32L232.172 216.923V237.708V247.667V252.431V257.627V276.246V294H207.385L206 113L267.063 113.006C290.913 113.006 308.698 117.683 320.418 127.035C329.427 134.253 335.285 143.859 337.032 154.279C337.689 157.8 338.012 161.36 337.997 164.925C338.052 170.251 337.309 175.561 335.786 180.726C333.313 189.27 327.846 196.973 320.109 202.816C314.342 207.07 307.621 210.289 300.353 212.279C290.977 214.973 279.88 216.32 267.063 216.32ZM266.879 124.258H232.172V144.177V155.002V165.828V176.22V185.746V196.572V202.816V205.831H267.063C274.236 205.897 281.397 205.298 288.417 204.043C308.595 200.221 320.22 190.268 323.292 174.182C323.859 171.12 324.135 168.025 324.119 164.925C324.156 160.819 323.666 156.722 322.657 152.706C320.662 145.068 316.626 138.871 310.549 134.115C301.673 127.168 287.385 124.389 268.017 124.258C267.644 124.256 267.252 124.258 266.879 124.258Z" fill="#64FFDA"/>
</svg>
